<svg width="31" height="31" viewBox="0 0 31 31" fill="none" xmlns="http://www.w3.org/2000/svg">
<g opacity="0.32">
<path d="M15.4154 13.9662C21.2327 13.9662 24.6627 13.8402 26.3827 13.7491C27.1787 13.7069 27.7826 13.0482 27.7826 12.251V10.8055C27.7826 10.2494 27.6034 9.70373 27.2095 9.31107C24.8989 7.00781 19.5889 4.03938 15.9905 3.25389C15.6103 3.17088 15.2206 3.17088 14.8404 3.25389C11.2419 4.03938 5.93193 7.00781 3.62137 9.31107C3.22747 9.70373 3.04828 10.2494 3.04828 10.8055V12.251C3.04828 13.0482 3.65216 13.7069 4.44818 13.7491C6.16815 13.8402 9.59811 13.9662 15.4154 13.9662Z" fill="#637381"/>
<path d="M3.26928 23.8335C3.42997 23.367 3.89701 23.1549 4.38962 23.1269C5.66902 23.0543 8.80111 22.9324 15.4154 22.9324C22.0298 22.9324 25.1619 23.0543 26.4412 23.1269C26.9338 23.1549 27.4009 23.367 27.5616 23.8335C27.6806 24.1792 27.7826 24.6854 27.7826 25.4058C27.7826 26.1262 27.6806 26.6324 27.5616 26.9781C27.4009 27.4446 26.9338 27.6567 26.4412 27.6847C25.1619 27.7574 22.0298 27.8792 15.4154 27.8792C8.80111 27.8792 5.66902 27.7574 4.38962 27.6847C3.89701 27.6567 3.42997 27.4446 3.26928 26.9781C3.15022 26.6324 3.04828 26.1262 3.04828 25.4058C3.04828 24.6854 3.15022 24.1792 3.26928 23.8335Z" fill="#637381"/>
</g>
<path d="M15.4154 11.8019C16.7815 11.8019 17.8889 10.6945 17.8889 9.3285C17.8889 7.96246 16.7815 6.85507 15.4154 6.85507C14.0494 6.85507 12.942 7.96246 12.942 9.3285C12.942 10.6945 14.0494 11.8019 15.4154 11.8019Z" fill="#637381"/>
<path d="M17.823 13.9585C17.0704 13.9634 16.2686 13.9661 15.4154 13.9661C14.5623 13.9661 13.7605 13.9634 13.0079 13.9585C12.9763 14.764 12.942 16.1936 12.942 18.6039C12.942 20.7304 12.9687 22.0936 12.9967 22.9382C13.7459 22.9344 14.5509 22.9324 15.4154 22.9324C16.28 22.9324 17.085 22.9344 17.8342 22.9382C17.8622 22.0936 17.8889 20.7304 17.8889 18.6039C17.8889 16.1936 17.8546 14.764 17.823 13.9585Z" fill="#637381"/>
<path d="M20.4293 13.9306C20.3974 14.7308 20.3623 16.1655 20.3623 18.6039C20.3623 20.7487 20.3895 22.117 20.4177 22.96C22.6462 22.9871 24.1989 23.0303 25.2499 23.0712C25.2795 22.2393 25.3092 20.8458 25.3092 18.6039C25.3092 16.0296 25.2701 14.5739 25.2369 13.8026C24.0874 13.8502 22.5103 13.8988 20.4293 13.9306Z" fill="#637381"/>
<path d="M5.59402 13.8026C6.74345 13.8502 8.32059 13.8988 10.4016 13.9306C10.4335 14.7308 10.4686 16.1655 10.4686 18.6039C10.4686 20.7487 10.4414 22.117 10.4132 22.96C8.18468 22.9871 6.63203 23.0303 5.58098 23.0712C5.55141 22.2393 5.52173 20.8458 5.52173 18.6039C5.52173 16.0296 5.56087 14.5739 5.59402 13.8026Z" fill="#637381"/>
</svg>
