<svg width="21" height="21" viewBox="0 0 21 21" fill="none" xmlns="http://www.w3.org/2000/svg">
<path d="M10.4786 13.0896C10.2859 13.09 10.0992 13.0229 9.9509 12.9L5.00404 8.77757C4.65342 8.48615 4.60544 7.96568 4.89686 7.61506C5.18828 7.26445 5.70875 7.21646 6.05937 7.50788L10.4786 11.2015L14.8978 7.6398C15.0681 7.50147 15.2865 7.43675 15.5047 7.45997C15.7229 7.48318 15.9229 7.59241 16.0603 7.76347C16.2129 7.93484 16.2872 8.16208 16.2653 8.39053C16.2434 8.61898 16.1273 8.82796 15.9448 8.9672L10.998 12.9494C10.8454 13.0529 10.6625 13.1023 10.4786 13.0896Z" fill="#1939B7"/>
</svg>
