<svg width="21" height="21" viewBox="0 0 21 21" fill="none" xmlns="http://www.w3.org/2000/svg">
<path d="M8.82935 16.2834C8.63671 16.2838 8.45002 16.2167 8.30168 16.0938C8.13307 15.954 8.02701 15.7529 8.0069 15.5348C7.98679 15.3167 8.05429 15.0995 8.1945 14.9313L11.8882 10.5121L8.32642 6.08464C8.18809 5.9143 8.12337 5.69586 8.14659 5.47767C8.1698 5.25948 8.27903 5.05954 8.45009 4.92212C8.62254 4.77039 8.85048 4.69747 9.07898 4.72095C9.30748 4.74443 9.51583 4.86216 9.65382 5.04579L13.636 9.99265C13.8861 10.2969 13.8861 10.7355 13.636 11.0397L9.51366 15.9866C9.34591 16.189 9.09173 16.2992 8.82935 16.2834Z" fill="#637381"/>
</svg>
