<svg width="40" height="40" viewBox="0 0 40 40" fill="none" xmlns="http://www.w3.org/2000/svg">
<path fill-rule="evenodd" clip-rule="evenodd" d="M26.7196 21.4L28.5196 23.21C28.9819 23.6799 29.1178 24.381 28.8648 24.9896C28.6117 25.5983 28.0188 25.9963 27.3596 26H23.9996V26.34C23.9024 28.4537 22.1136 30.0904 19.9996 30C17.8856 30.0904 16.0969 28.4537 15.9996 26.34V26H12.6396C11.9805 25.9963 11.3876 25.5983 11.1345 24.9896C10.8814 24.381 11.0174 23.6799 11.4796 23.21L13.2796 21.4V16.73C13.2832 14.7912 14.1215 12.9478 15.5804 11.6708C17.0392 10.3938 18.9774 9.80685 20.8996 10.06C24.2851 10.5789 26.7691 13.5153 26.7196 16.94V21.4ZM19.9996 28C21.003 28.0708 21.8844 27.3393 21.9996 26.34V26H17.9996V26.34C18.1148 27.3393 18.9962 28.0708 19.9996 28Z" fill="#637381"/>
</svg>
