<svg width="31" height="31" viewBox="0 0 31 31" fill="none" xmlns="http://www.w3.org/2000/svg">
<path opacity="0.32" d="M26.7695 21.3497C26.4186 22.16 25.5843 22.6232 24.7014 22.6232H18.8973C18.9353 22.5175 18.9691 22.4091 18.9983 22.2983C19.3369 21.0122 18.9802 19.7033 18.1626 18.7848C18.4644 16.3272 18.6528 13.8094 18.7679 11.8207C18.8249 10.834 17.6161 10.5044 17.1807 11.3879C16.3031 13.1688 15.2291 15.445 14.2828 17.727C13.1234 18.1065 12.1713 19.0585 11.8326 20.3446C11.6267 21.1266 11.6779 21.9171 11.9335 22.6232H6.12944C5.24651 22.6232 4.41223 22.16 4.06136 21.3497C3.40955 19.8446 3.04828 18.1843 3.04828 16.4396C3.04828 9.60941 8.58524 4.07245 15.4154 4.07245C22.2456 4.07245 27.7826 9.60941 27.7826 16.4396C27.7826 18.1843 27.4213 19.8446 26.7695 21.3497Z" fill="#1939B7"/>
<path d="M18.7678 11.8207C18.8249 10.834 17.6161 10.5044 17.1807 11.3879C16.3031 13.1688 15.229 15.4451 14.2828 17.727C13.1234 18.1065 12.1713 19.0586 11.8326 20.3446C11.3023 22.358 12.4767 24.4276 14.4554 24.9671C16.4342 25.5066 18.4681 24.3117 18.9982 22.2983C19.3369 21.0123 18.9802 19.7033 18.1626 18.7848C18.4644 16.3272 18.6528 13.8094 18.7678 11.8207Z" fill="#1939B7"/>
</svg>
